HIERARCHY
ROOT Hips
{
	OFFSET 0.000000 88.474243 0.000000
	CHANNELS 6 Xposition Yposition Zposition Zrotation Yrotation Xrotation 
	JOINT Hips_Spine
	{
		OFFSET 0.000000 0.000000 0.000000
		CHANNELS 3 Zrotation Yrotation Xrotation
		JOINT Spine
		{
			OFFSET 0.005100 8.711998 -0.691000
			CHANNELS 3 Zrotation Yrotation Xrotation
			JOINT Spine1
			{
				OFFSET -0.009200 8.660301 -1.275000
				CHANNELS 3 Zrotation Yrotation Xrotation
				JOINT Spine2
				{
					OFFSET 0.006300 9.852501 -1.857000
					CHANNELS 3 Zrotation Yrotation Xrotation
					JOINT Spine2_Neck
					{
						OFFSET 0.000000 0.000000 0.000000
						CHANNELS 3 Zrotation Yrotation Xrotation
						JOINT Neck
						{
							OFFSET 0.016300 11.420799 -0.263300
							CHANNELS 3 Zrotation Yrotation Xrotation
							End Site #name: Head
							{
								OFFSET -0.019200 9.262405 2.362500
							}
						}
					}
					JOINT Spine2_LeftShoulder
					{
						OFFSET 0.000000 0.000000 0.000000
						CHANNELS 3 Zrotation Yrotation Xrotation
						JOINT LeftShoulder
						{
							OFFSET 5.616900 6.732201 -0.345700
							CHANNELS 3 Zrotation Yrotation Xrotation
							JOINT LeftArm
							{
								OFFSET 10.664888 -0.183372 -2.440700
								CHANNELS 3 Zrotation Yrotation Xrotation
								JOINT LeftForeArm
								{
									OFFSET 27.459126 0.000000 0.000000
									CHANNELS 3 Zrotation Yrotation Xrotation
									End Site #name: LeftHand
									{
										OFFSET 21.306858 0.000000 0.000000
									}
								}
							}
						}
					}
					JOINT Spine2_RightShoulder
					{
						OFFSET 0.000000 0.000000 0.000000
						CHANNELS 3 Zrotation Yrotation Xrotation
						JOINT RightShoulder
						{
							OFFSET -5.580300 6.737503 -0.344400
							CHANNELS 3 Zrotation Yrotation Xrotation
							JOINT RightArm
							{
								OFFSET -10.679335 -0.188484 -2.383900
								CHANNELS 3 Zrotation Yrotation Xrotation
								JOINT RightForeArm
								{
									OFFSET -27.503529 0.000000 0.000000
									CHANNELS 3 Zrotation Yrotation Xrotation
									End Site #name: RightHand
									{
										OFFSET -21.306808 0.000000 0.000000
									}
								}
							}
						}
					}
				}
			}
		}
	}
	JOINT Hips_LeftUpLeg
	{
		OFFSET 0.000000 0.000000 0.000000
		CHANNELS 3 Zrotation Yrotation Xrotation
		JOINT LeftUpLeg
		{
			OFFSET 6.857700 -6.739601 0.312100
			CHANNELS 3 Zrotation Yrotation Xrotation
			JOINT LeftLeg
			{
				OFFSET -0.367590 -34.731552 -4.572400
				CHANNELS 3 Zrotation Yrotation Xrotation
				End Site #name: LeftFoot
				{
					OFFSET 0.367590 -34.656704 -6.067400
				}
			}
		}
	}
	JOINT Hips_RightUpLeg
	{
		OFFSET 0.000000 0.000000 0.000000
		CHANNELS 3 Zrotation Yrotation Xrotation
		JOINT RightUpLeg
		{
			OFFSET -6.876100 -6.733299 0.301000
			CHANNELS 3 Zrotation Yrotation Xrotation
			JOINT RightLeg
			{
				OFFSET 0.347353 -34.795158 -4.515900
				CHANNELS 3 Zrotation Yrotation Xrotation
				End Site #name: RightFoot
				{
					OFFSET -0.347353 -34.589367 -6.070300
				}
			}
		}
	}
}
MOTION
Frames: 12
Frame Time: 0.041667
0.177948 0.042734 -0.025722 1.426145 18.086952 -6.216891 -0.000000 0.000000 0.000000 -0.133461 -1.879343 -0.143750 0.364692 -1.536324 -1.724079 0.000000 0.000000 0.000000 0.096318 -0.924547 -1.907801 4.347591 0.930124 -5.869922 0.521314 -1.743748 -2.697615 -15.915499 -5.859285 2.092525 -46.990556 -1.501611 7.961536 -0.373987 -33.044056 5.932653 0.450982 -1.302651 -1.022602 12.705173 11.075735 4.604587 57.475437 -7.581699 -5.602559 -0.709477 54.958861 0.507447 0.000000 0.000000 0.000000 -10.734702 20.402746 -5.030518 -1.701034 -2.739710 23.279609 0.000000 0.000000 0.000000 -5.300416 18.005727 -9.252385 8.218883 3.208470 -1.887994 
0.760959 -0.041734 0.101926 3.488813 17.174218 -6.637993 -0.000000 0.000000 0.000000 -2.322450 -2.298619 -0.692331 0.663240 -1.678526 -2.030202 0.000000 0.000000 0.000000 0.256257 -0.878235 -3.101108 4.809850 -0.924847 -3.826476 -0.086505 -1.656098 -3.950128 -20.985073 -3.043638 0.944305 -45.134922 -0.785879 -4.183460 -0.760698 -26.817179 3.800361 0.137516 -1.606817 -1.216719 12.868092 8.236802 1.848181 60.470872 -2.563518 -7.417235 -0.907977 57.511193 -1.060698 0.000000 0.000000 -0.000000 -13.936018 17.816547 -1.742745 -0.771239 1.007876 20.700343 0.000000 0.000000 0.000000 -9.424325 21.214054 -10.182097 8.865679 3.555449 0.086409 
1.078863 -0.077874 0.100245 5.107499 13.977274 -6.853580 -0.000000 0.000000 -0.000000 -3.799594 -3.370718 -0.349688 0.641413 -1.519351 -2.201908 0.000000 0.000000 0.000000 0.691865 -1.352437 -3.073042 4.166236 -2.186588 -3.899452 -0.431551 -1.669307 -3.608644 -24.180396 -2.349877 2.545614 -45.588621 5.004263 -7.708528 -1.322855 -27.262641 3.906714 0.192201 -1.649354 -1.189724 11.841689 7.292464 2.043637 59.622822 -0.310893 -5.482819 -0.364255 51.867289 -0.752510 0.000000 0.000000 -0.000000 -15.803829 17.584012 0.534018 -1.139229 1.581527 18.526537 0.000000 0.000000 0.000000 -12.033796 22.966271 -13.989775 8.626509 2.192600 7.336172 
1.339793 -0.100228 0.049686 5.896628 11.683688 -6.947401 -0.000000 0.000000 -0.000000 -5.371134 -3.081675 0.798060 0.593665 -1.482036 -2.184208 0.000000 0.000000 0.000000 0.846799 -1.526469 -3.049710 3.873477 -3.920272 -2.916512 -0.417162 -1.710628 -3.458867 -25.399507 -2.051218 3.989992 -44.341180 6.381997 -7.197298 -0.908542 -26.120681 6.225519 0.260997 -1.679652 -1.140511 10.349840 7.393127 1.952718 59.111379 2.358271 -3.751238 -0.190546 52.299612 -0.624074 0.000000 0.000000 -0.000000 -16.777321 17.973216 1.159584 -1.641648 1.974828 17.789715 0.000000 0.000000 0.000000 -13.993878 22.722819 -17.710241 8.400349 1.794641 15.471446 
1.645431 -0.104462 -0.014533 6.209296 11.105424 -6.746811 -0.000000 0.000000 -0.000000 -6.396561 -2.551743 1.018527 0.462826 -1.441306 -2.200209 0.000000 0.000000 0.000000 0.562998 -1.638399 -3.225711 3.807709 -4.880124 -2.459093 -0.477393 -1.810501 -3.498754 -26.991820 -1.616200 5.128409 -41.549839 6.587780 -7.114077 -0.277954 -22.315622 8.342541 0.201390 -1.711338 -1.190409 8.438757 7.556496 1.742570 59.746921 3.587685 -3.166672 -0.110759 54.217249 -0.733538 0.000000 0.000000 -0.000000 -17.314506 18.439639 1.316353 -1.954629 2.286897 17.439872 0.000000 0.000000 0.000000 -15.386849 21.796984 -20.019036 8.169381 1.830584 21.173492 
1.982644 -0.096968 -0.084137 6.255085 10.883601 -6.614814 -0.000000 0.000000 -0.000000 -6.600527 -2.078460 0.439547 0.249651 -1.396449 -2.299007 0.000000 0.000000 0.000000 0.173931 -1.704510 -3.469044 3.622765 -5.169176 -2.381175 -0.683180 -1.892162 -3.691348 -28.979947 -0.911930 5.768464 -39.339747 6.571986 -6.575669 0.255654 -17.927951 9.695602 0.057233 -1.769938 -1.344306 6.615259 7.634434 1.562899 61.267179 3.318515 -4.071575 0.060991 54.593120 -0.737803 0.000000 0.000000 -0.000000 -17.656009 18.757441 1.202541 -1.845247 2.592069 17.223019 0.000000 0.000000 0.000000 -16.199289 20.660328 -20.929973 7.914807 2.130616 24.481352 
2.332687 -0.079714 -0.152325 6.096982 11.135601 -6.541324 -0.000000 0.000000 -0.000000 -6.320926 -1.700515 -0.341350 -0.018749 -1.323837 -2.503688 0.000000 0.000000 0.000000 -0.185583 -1.705212 -3.653005 3.439187 -5.320855 -2.265648 -0.970328 -1.871237 -3.939250 -30.893616 -0.026624 5.987963 -37.567148 6.763415 -6.008421 0.720124 -13.240015 10.284577 -0.247192 -1.770235 -1.535014 5.449357 7.696487 1.467360 63.276288 2.503154 -5.937655 0.265888 53.751170 -0.693571 0.000000 0.000000 -0.000000 -17.844495 18.977532 0.833087 -1.635229 2.819499 17.255577 0.000000 0.000000 0.000000 -16.692413 19.440775 -20.946446 7.503588 2.142599 26.034773 
2.672618 -0.053910 -0.211427 5.815833 11.897327 -6.438983 -0.000000 0.000000 -0.000000 -6.159842 -1.347772 -1.082547 -0.255040 -1.204966 -2.692274 0.000000 0.000000 0.000000 -0.445395 -1.667241 -3.788484 3.198665 -5.346577 -2.086327 -1.240574 -1.815618 -4.154328 -32.306630 0.715550 5.917425 -36.324151 6.966365 -5.790794 0.936369 -10.141120 10.174613 -0.537784 -1.687541 -1.660376 4.763413 7.693581 1.451819 65.871251 2.338886 -7.153304 0.456519 52.105592 -0.655304 0.000000 0.000000 -0.000000 -17.836508 19.057402 0.364364 -1.473331 3.013251 17.310165 0.000000 0.000000 0.000000 -16.875515 18.028896 -20.424153 6.922539 1.977610 26.350601 
2.976847 -0.017657 -0.256841 5.421204 13.189829 -6.326119 -0.000000 0.000000 -0.000000 -6.359853 -1.053224 -1.408444 -0.420467 -1.068898 -2.847884 0.000000 0.000000 0.000000 -0.644105 -1.600560 -3.900670 3.118390 -5.046868 -1.906371 -1.438256 -1.725644 -4.340538 -33.024034 1.180344 5.855983 -35.860914 7.028047 -5.747397 0.936990 -8.972751 9.804614 -0.834974 -1.560310 -1.740250 4.414162 7.563789 1.458794 67.955189 2.103642 -7.455737 0.626119 49.950375 -0.572109 0.000000 0.000000 -0.000000 -17.675077 18.985244 -0.089682 -1.249628 3.203192 17.347313 0.000000 0.000000 0.000000 -16.794332 16.398150 -19.600772 6.321189 1.744234 25.912275 
3.240991 0.030389 -0.289513 4.943664 14.616830 -6.216441 -0.000000 0.000000 -0.000000 -6.801929 -0.798840 -1.426783 -0.549015 -0.940034 -3.012146 0.000000 0.000000 0.000000 -0.808900 -1.530139 -4.000150 3.145846 -4.576164 -1.779856 -1.583063 -1.638970 -4.506591 -33.171368 1.478452 5.855184 -35.997700 7.217116 -5.949009 0.867548 -8.952563 9.439960 -1.085504 -1.425403 -1.807773 4.066057 7.376230 1.445549 69.612684 2.140974 -6.992941 0.756945 47.896534 -0.513039 0.000000 0.000000 -0.000000 -17.348520 18.836382 -0.560762 -1.000550 3.420935 17.340450 0.000000 0.000000 0.000000 -16.521030 14.545373 -18.569184 5.749795 1.503149 24.803393 
3.461851 0.088995 -0.310130 4.419519 15.959927 -6.086269 -0.000000 0.000000 -0.000000 -7.320797 -0.522504 -1.289586 -0.660936 -0.833829 -3.173711 0.000000 0.000000 0.000000 -0.977098 -1.453070 -4.086122 3.251214 -3.970405 -1.791824 -1.707771 -1.551030 -4.667286 -32.891378 1.645782 5.850182 -36.498692 7.360798 -6.325916 0.776749 -9.652768 9.183317 -1.308732 -1.301189 -1.858896 3.831265 7.199584 1.421948 70.601607 2.411771 -6.386844 0.836408 46.122727 -0.467259 0.000000 0.000000 -0.000000 -16.964902 18.650303 -1.048057 -0.758953 3.692338 17.381903 0.000000 0.000000 0.000000 -16.145954 12.420921 -17.430649 5.195553 1.250756 23.190538 
3.635834 0.155110 -0.320310 3.917227 17.159710 -5.954368 -0.000000 0.000000 -0.000000 -7.854388 -0.317237 -1.020999 -0.779985 -0.733630 -3.343467 0.000000 0.000000 0.000000 -1.158646 -1.380730 -4.177777 3.385815 -3.388475 -1.935426 -1.833499 -1.467552 -4.816896 -32.304712 1.689003 5.855261 -37.162817 7.330523 -6.579362 0.715435 -10.487376 9.016650 -1.529961 -1.179903 -1.901444 3.765830 7.003111 1.392827 70.887155 2.693526 -6.017694 0.861870 45.040526 -0.452242 0.000000 0.000000 -0.000000 -16.568567 18.471033 -1.461435 -0.643465 3.908845 17.332718 0.000000 0.000000 0.000000 -15.738819 10.259574 -16.320178 4.710538 1.055402 21.375763 
